PathFileType	4	(X/Y/Z)	C:/Users/beibeiliu/ov580/test_trc/User1\sequence.5_training_dense_right.trc
DataRate	CameraRate	NumFrames	NumMarkers	Units	OrigDataRate	OrigDataStartFrame	OrigNumFrames
120	120	23	19	mm	120	1	39
Frame#	Time	ThumbCMC			ThumbMCP			ThumbIP			ThumbTip			IndexMCP			IndexPIP			IndexTip			MiddleMCP			MiddlePIP			MiddleTip			RingMCP			RingPIP			RingTip			PinkyMCP			PinkyPIP			PinkyTip			BackHand1			BackHand2			BackHand3	
		X0	Y0	Z0	X1	Y1	Z1	X2	Y2	Z2	X3	Y3	Z3	X4	Y4	Z4	X5	Y5	Z5	X6	Y6	Z6	X7	Y7	Z7	X8	Y8	Z8	X9	Y9	Z9	X10	Y10	Z10	X11	Y11	Z11	X12	Y12	Z12	X13	Y13	Z13	X14	Y14	Z14	X15	Y15	Z15	X16	Y16	Z16	X17	Y17	Z17	X18	Y18	Z18	
0	0	165.242	105.222	98.5413	141.45	123.196	68.2066	127.762	116.861	40.5815	113.396	106.533	22.096	181.901	83.588	17.5547	176.555	81.6416	-11.7372	172.738	80.9087	-33.9909	155.151	63.2553	11.9775	124.891	78.7914	0.957279	97.917	90.4107	27.0823	138.487	49.1932	22.4109	108.122	65.3355	20.4926	93.6139	78.4134	48.2211	131.183	32.3809	38.3942	107.334	49.7914	34.1059	101.425	72.6146	54.044	174.136	39.4391	75.1855	179.446	41.2977	111.974	189.132	72.5665	91.8634	
1	0.00833333	150.304	110.585	99.2115	125.994	114.971	74.0771	118.971	109.033	41.6159	107.346	100.721	21.228	181.785	104.034	25.3017	182.439	104.056	-5.40609	175.095	96.6508	-32.4293	166.198	81.5558	15.519	129.264	82.1138	2.20429	102.15	78.4137	28.5384	153.51	59.4689	20.3885	122.604	55.0248	18.3334	102.672	64.1053	46.6663	153.94	37.5545	36.467	124.211	44.6013	31.6373	114.055	63.6501	55.0742	186.725	56.0447	77.2769	187.43	54.8825	113.836	187.392	90.8561	95.1738	
2	0.0166667	125.344	98.5308	109.346	106.435	92.7415	75.238	101.426	89.8718	44.5475	100.62	80.4905	22.5002	156.537	117.918	30.7847	154.497	121.267	6.17911	156.666	115.322	-21.0951	155.222	92.6787	15.7657	126.302	77.521	4.17086	105.224	57.7408	31.621	159.671	64.8365	22.7792	131.58	52.0425	18.3617	112.854	43.7969	46.1992	167.909	46.9669	34.098	141.192	38.3824	31.0585	121.077	46.6313	52.4332	187.842	74.6238	79.2236	190.378	68.5346	113.776	170.677	100.908	102.987	
3	0.025	111.349	93.8321	110.165	90.9953	84.3182	80.7736	89.8512	81.9545	47.2214	88.3646	72.1808	23.5835	137.496	124.416	38.8108	137.136	128.863	8.10558	141.47	125.361	-17.0884	146.178	94.5422	20.6194	118.723	72.2306	7.93782	103.224	51.0277	33.8096	149.874	71.4306	24.2221	124.086	48.6198	22.5619	110.048	39.3286	49.6879	164.09	54.7941	37.0306	140.334	41.6876	32.657	117.55	41.8108	59.875	177.17	86.639	83.0945	179.295	74.9487	119.015	152.42	107.01	104.265	
4	0.0333333	106.382	101.914	115.291	83.6422	92.3712	88.8945	76.747	89.1827	57.9198	74.0017	78.236	33.4769	127.319	124.548	36.4591	122.765	128.442	13.4556	123.636	123.185	-13.7692	129.394	98.6894	26.7178	98.6321	75.7789	15.9567	83.0706	57.3747	41.5883	135.714	72.9252	31.1822	103.499	53.317	30.6117	92.6967	43.0248	60.1957	149.05	52.6651	41.0098	117.667	42.489	40.4928	103.903	46.1083	68.7468	167.984	84.0831	84.7266	176.543	74.7343	117.421	151.501	104.441	107.32	
5	0.0416667	113.045	113.261	115.923	85.3539	109.571	95.6558	72.0461	104.972	71.622	61.0542	94.6268	49.2305	118.899	119.638	34.0718	112.385	114.319	9.63535	107.092	116.511	-15.4285	115.574	91.4115	27.008	80.4734	80.0464	22.0113	61.3677	71.5859	52.3704	111.683	68.3824	32.669	80.933	57.0137	38.1086	71.2418	58.8733	68.6557	120.04	43.7238	43.7395	93.0238	46.4221	47.2777	82.3312	57.1666	80.5973	158.312	69.2371	77.1749	167.35	67.5295	110.341	152.919	101.026	97.707	
6	0.05	132.893	116.667	107.699	103.485	128.709	88.8792	85.3189	125.522	62.3338	67.599	113.848	45.7428	136.83	104.401	25.4895	129.592	103.331	-0.318637	122.368	92.0198	-22.67	116.685	85.6162	23.3137	80.8523	89.1688	21.5582	59.2876	92.0757	52.7393	104.655	60.6557	33.3818	72.8037	67.4668	40.2746	63.2952	76.1594	69.293	107.394	42.5897	49.8704	77.6021	53.0711	53.2503	74.3839	74.5621	79.8105	153.732	56.5859	79.7283	162.338	55.9737	112.372	161.503	89.6105	91.907	
7	0.0583333	151.223	109.253	102.122	126.354	121.705	74.4748	110.381	118.371	48.5464	92.1556	109.179	28.7844	163.459	81.4103	20.2242	157.073	72.223	-7.03352	151.635	63.841	-31.7	130.911	65.5671	18.174	99.0849	79.2911	12.6162	74.3851	92.6984	41.487	114.001	48.5833	31.0366	84.5681	63.4274	32.2091	74.0387	82.2059	53.1364	112.685	32.7755	49.7708	89.0838	49.492	44.5158	78.6319	76.8679	63.5927	158.942	40.2254	77.419	164.628	42.2512	116.886	175.149	74.1409	92.7146	
8	0.0666667	156.279	105.483	96.5374	134.1	120.548	70.7314	122.769	115.844	44.9933	106.843	109.062	22.7047	180.132	80.0098	21.7773	181.85	74.2287	-4.24091	177.777	65.1225	-26.8913	149.922	64.1568	15.8634	115.954	78.2869	5.37363	92.6315	90.6827	23.2758	135.144	49.2672	27.1545	104.919	63.0586	20.8867	83.1114	80.8422	41.4141	124.434	32.2835	42.9894	103.194	51.075	36.8315	87.9674	72.0364	50.3433	166.981	36.2365	79.5894	167.351	38.9394	114.745	179.8	71.226	96.1294	
9	0.075	152.092	112.252	103.935	129.591	122.261	71.638	121.047	118.405	44.9521	109.123	108.848	20.3051	183.748	88.7601	25.7877	186.126	89.0532	1.57355	182.631	79.7307	-28.1859	157.738	75.5385	14.4039	124.05	82.4469	3.19237	96.2754	91.1903	19.2498	143.408	53.5266	26.2858	113.351	65.2999	17.6571	88.8318	78.5711	35.1054	133.23	33.2871	40.6217	111.102	49.6005	32.005	95.3447	73.5977	43.1222	171.48	48.3383	82.8328	169.879	44.2362	114.548	181.273	76.2682	100.398	
10	0.0833333	144.416	108.968	103.203	119.303	120.324	72.1636	108.43	115.069	45.311	99.4103	102.459	23.2905	169.342	99.0264	26.2893	164.812	98.3197	-3.43507	161.584	87.6137	-24.6493	151.223	75.5638	16.4735	120.07	77.0491	4.0072	88.9235	82.4137	23.9208	138.271	52.9316	24.5102	108.258	59.967	18.7931	84.684	69.9325	38.7368	134.093	31.4218	41.5277	110.669	44.9326	32.7238	91.1317	68.1257	48.2877	171.481	51.5425	84.2243	172.571	48.0986	118.283	174.834	81.78	100.618	
11	0.0916667	131.631	109.908	109.178	109.254	112.9	77.9817	98.8494	108.273	45.4553	89.0825	97.3265	23.3692	157.71	106.905	25.2317	152.762	102.638	-1.94313	145.205	96.3812	-27.4778	146.849	82.062	20.3589	111.737	77.4919	6.65104	81.9236	78.1539	28.3679	137.715	55.4203	25.2041	105.533	55.5953	21.3512	82.9009	63.3292	46.4149	135.851	37.528	38.6766	107.593	42.9064	34.6674	90.0989	58.8493	54.3756	170.838	55.5713	79.6412	171.05	53.9671	116.92	168.398	91.6145	97.9064	
12	0.1	113.74	107.61	111.999	92.7619	102.585	80.4563	85.3617	97.2273	53.2971	80.805	87.1163	28.5924	143.636	120.061	28.6322	140.285	114.456	2.52496	132.676	109.968	-19.8276	137.73	92.7001	19.2987	107.79	74.4379	10.7485	85.0852	63.1627	34.5792	139.323	65.1366	25.9004	107.777	51.1519	24.6346	88.5611	52.043	50.4184	146.374	43.2508	38.2046	117.923	42.9975	35.6129	99.1024	52.001	59.4852	172.363	74.0061	83.4382	170.965	67.2917	117.898	157.821	102.881	106.257	
13	0.108333	99.6911	84.7687	112.121	80.3256	72.6494	81.11	78.4516	69.7414	53.2554	77.1566	60.0427	29.2689	115.61	114.511	36.5304	113.466	112.671	9.47819	111.524	110.174	-18.6591	131.098	93.408	25.7319	110.253	67.3237	10.9751	95.607	42.2972	40.5202	140.99	67.2453	27.2206	116.9	47.609	25.0152	105.544	31.8467	49.3189	158.873	53.25	41.4927	131.083	36.7343	38.2614	112.397	37.9015	59.5705	162.394	88.076	89.8946	165.698	80.5984	120.048	135.129	105.017	111.774	
14	0.116667	90.4741	75.3637	112.815	72.0901	59.6606	82.8302	72.8028	57.3456	53.4304	77.2478	49.6786	24.1716	103.047	117.08	38.2336	103.781	116.962	10.8111	101.389	116.711	-13.1788	117.915	93.0443	27.336	107.597	64.0848	12.3572	96.5486	37.2986	41.0008	137.808	68.3125	30.1189	117.073	39.4519	27.507	106.493	25.4371	55.0862	154.733	57.9783	43.0061	135.673	34.8901	36.6015	114.08	29.8668	64.9368	156.978	88.9977	89.9117	156.992	82.6501	124.4	124.261	100.367	109.816	
15	0.125	87.8208	84.2013	114.05	70.024	68.1494	85.1301	64.5938	63.578	57.1018	67.2295	53.5474	31.7344	106.497	122.402	41.266	105.116	125.199	11.9698	102.608	123.302	-13.6731	115.088	91.0268	25.3287	93.9794	64.5444	15.9251	83.8527	41.9133	41.9737	126.811	68.152	30.4503	110.791	40.2471	27.6898	96.8592	26.2971	57.1019	146.544	52.4311	42.2421	123.662	33.6095	40.0387	103.516	31.6536	66.8608	157.906	85.6028	89.177	160.522	79.8345	120.417	127.068	101.145	112.18	
16	0.133333	96.8378	95.2408	115.85	67.5186	86.1862	89.7411	61.9803	78.4893	60.6574	55.1648	65.3284	38.6604	110.747	115.598	33.0982	105.072	115.083	8.32767	103.836	108.005	-19.3649	112.021	86.7906	26.098	82.9036	66.7721	18.7727	69.8601	46.4673	47.9871	118.93	60.9909	33.6822	87.6215	40.7658	35.7556	74.8405	35.3101	66.1049	132.491	39.6854	45.3224	100.551	31.8429	47.9617	85.4362	39.59	74.6518	156.017	74.6182	85.2258	162.21	70.4843	119.26	136.709	99.5055	107.686	
17	0.141667	109.134	110.563	111.88	78.4258	104.748	88.216	62.4914	99.5112	66.5954	51.0879	87.6178	47.3579	118.946	108.517	26.604	110.647	106.434	3.34547	103.279	100.849	-19.4764	107.314	80.1461	23.3258	72.5448	71.6323	23.0837	53.3647	66.3756	53.2665	105.629	58.6456	33.1931	71.6504	48.5688	42.0691	60.6514	53.7756	68.8414	112.092	36.8351	46.4527	82.8219	37.9709	52.5624	69.2172	49.6758	77.0397	154.28	62.0188	80.72	162.537	61.3068	116.679	146.652	98.6948	101.052	
18	0.15	128.631	117.096	108.657	96.8387	119.408	81.925	78.5517	115.543	61.4542	62.18	103.423	41.517	135.454	102.08	22.7723	127.377	97.0236	-0.591812	117.172	88.028	-27.9535	112.092	78.9384	19.8996	80.3531	77.3381	19.1089	54.7995	78.6874	50.3043	107.042	51.7365	34.6166	73.101	59.268	37.0979	59.1294	70.2276	66.8499	107.956	34.6069	50.3362	77.709	47.2604	51.9683	67.8144	63.3961	71.6924	153.311	54.7085	78.0203	160.153	54.7666	113.334	159.978	86.9378	94.1073	
19	0.158333	148.627	107.144	96.296	120.9	111.674	70.097	104.505	109.146	50.0787	85.4753	100.831	29.625	157.421	79.3917	20.0271	150.748	73.3028	-8.23192	138.29	68.5651	-31.7039	125.843	57.8977	16.7256	94.2067	69.4656	13.0866	69.1174	83.4789	38.2732	112.482	42.8347	30.2628	84.1455	58.7478	30.854	69.3645	74.7125	57.4153	112.899	27.3351	50.5587	86.3124	41.6808	46.3573	78.5589	70.9135	61.571	159.447	38.3727	76.4953	165.348	38.8716	111.366	172.828	69.626	92.9819	
20	0.166667	150.434	103.018	95.484	125.761	110.721	70.405	111.133	108.244	41.9944	101.267	93.1613	23.2332	171.33	78.389	19.8995	167.653	77.8203	-8.87737	152.833	72.3124	-32.9048	148.543	61.9734	15.3514	115.087	66.0566	3.9508	82.9742	80.0718	26.9562	131.79	42.8871	24.9849	99.7923	54.822	23.1248	80.7793	62.9433	43.911	126.224	22.1267	44.0141	102.064	34.592	38.6047	86.3359	60.3472	52.4448	170.944	35.2517	81.8729	173.574	38.3129	115.334	179.595	76.2569	89.9971	
21	0.175	135.574	105.386	100.261	111.201	103.327	70.936	98.8337	99.9503	43.6611	90.2378	88.8461	25.8746	156.922	95.372	17.8357	151.356	95.0643	-2.99132	139.84	86.9206	-32.4553	145.611	70.3436	14.3636	110.883	71.035	3.8445	80.2674	67.5712	25.2593	135.523	44.4958	23.2283	105.773	46.8979	20.7252	81.2847	51.215	41.8565	134.322	25.19	39.3478	109.093	33.6026	36.4353	89.2849	52.6449	50.5339	174.962	51.7725	81.3373	175.086	48.2574	114.563	172.845	82.6373	96.9025	
22	0.183333	125.241	102.592	103.274	99.3592	100.15	77.6042	89.902	94.0109	45.9171	80.3013	82.6039	26.7998	145.024	99.34	20.0794	136.659	96.1224	-3.45987	130.203	88.6956	-27.247	139.094	68.6999	19.0342	104.869	64.0681	6.61598	72.1319	60.7941	29.7838	133.393	43.8164	27.1567	98.8544	44.1458	22.0594	75.6048	44.3527	46.0626	131.421	27.9721	39.7951	104.409	27.9078	38.259	84.606	50.3832	53.725	169.656	54.1195	77.4594	169.05	51.9035	117.244	163.108	85.414	95.1591	
